<?xml version="1.0" encoding="UTF-8"?>
<svg xmlns="http://www.w3.org/2000/svg" viewBox="0 0 792 612">
  <defs>
    <style>
      .cls-1, .cls-2, .cls-3, .cls-4, .cls-5, .cls-6, .cls-7, .cls-8, .cls-9 {
        stroke: #080e59;
      }

      .cls-1, .cls-2, .cls-4, .cls-5, .cls-8, .cls-9 {
        stroke-width: 4px;
      }

      .cls-1, .cls-2, .cls-4, .cls-10, .cls-8, .cls-9 {
        stroke-linecap: round;
      }

      .cls-1, .cls-2, .cls-4, .cls-10, .cls-9 {
        stroke-linejoin: round;
      }

      .cls-1, .cls-10, .cls-8 {
        fill: none;
      }

      .cls-11, .cls-2 {
        fill: #0171df;
      }

      .cls-12, .cls-7 {
        fill: #080e59;
      }

      .cls-3 {
        stroke-width: 5px;
      }

      .cls-3, .cls-4 {
        fill: #0289fe;
      }

      .cls-3, .cls-5, .cls-6, .cls-7, .cls-8 {
        stroke-miterlimit: 10;
      }

      .cls-13 {
        fill: #f7b5be;
      }

      .cls-5, .cls-14, .cls-6, .cls-9 {
        fill: #fff;
      }

      .cls-10 {
        stroke: #fff;
        stroke-width: 7px;
      }
    </style>
  </defs>
  <g id="R_foot" data-name="R foot">
    <path class="cls-9" d="M321.41,464.65c22.94,1.24,31.86,18.76,24.33,31.06-6.57,10.72-25.51,14.18-51.13,8.75-13.96-2.96-22.1-17.97-16.44-31.07,1.4-3.24,3.45-6.51,6.16-9.8"/>
    <ellipse class="cls-9" cx="303.75" cy="457.81" rx="23.5" ry="10.5" transform="translate(-17.43 12.06) rotate(-2.21)"/>
    <path class="cls-9" d="M278.47,489.93c23.64,11.91,46.7,10.64,69.38.76"/>
    <path class="cls-1" d="M309.84,473.08c5.8-5.23,15.68-8.61,25.83-5"/>
  </g>
  <g id="L_foot" data-name="L foot">
    <path class="cls-9" d="M262.89,469.02c22.87,2.13,31.11,19.98,23.11,31.98-6.98,10.46-26.04,13.19-51.42,6.77-13.83-3.49-21.39-18.81-15.23-31.68,1.52-3.18,3.7-6.37,6.53-9.56"/>
    <ellipse class="cls-9" cx="246.5" cy="461.5" rx="23.5" ry="10.5"/>
    <path class="cls-9" d="M219,492.62c23.16,12.81,46.25,12.44,69.3,3.43"/>
    <path class="cls-1" d="M251,477c6-5,16-8,26-4"/>
  </g>
  <g id="R_leg" data-name="R leg">
    <path class="cls-4" d="M291,434v20c9.04,4.31,17.04,4.62,26-1v-22.66l-26,2.66"/>
    <path class="cls-11" d="M293,439c9.57,9.49,15.86,10.59,22,7v-13l-22,6Z"/>
  </g>
  <g id="L_leg" data-name="L leg">
    <path class="cls-4" d="M234.03,438.03v20c9.04,4.31,17.04,4.62,26-1v-22.66"/>
    <path class="cls-11" d="M236,440c9.8,11.12,16.99,11.15,22,9v-6.17l-22-2.83Z"/>
  </g>
  <g id="Shorts">
    <path class="cls-12" d="M280.5,401.76l1.34,31.46c.1,2.28,1.67,4.24,3.88,4.79,14.4,3.59,27.58,3.06,39-3.22,1.63-.9,2.61-2.64,2.61-4.5l-.03-39.7-46.8,5.92v5.25Z"/>
    <path class="cls-12" d="M222.04,390.59l53.96,6.27v37.86c0,2.65-1.75,4.99-4.3,5.74-14.49,4.27-31.88,3.13-47.15-3.74-2.17-.97-3.51-3.18-3.46-5.56l.95-40.57Z"/>
    <polygon class="cls-12" points="266 411 294.5 411 294.5 392.78 264.32 392.78 266 411"/>
  </g>
  <g id="R_arm" data-name="R arm">
    <path class="cls-4" d="M327.34,327.17c15.59-3.71,34.49-11.58,55.66-24.17l10,24c-19.58,11.49-38.69,21.36-57,23l-8.66-22.83Z"/>
  </g>
  <g id="R_hand" data-name="R hand">
    <ellipse class="cls-9" cx="382.16" cy="320.23" rx="9.47" ry="20.98" transform="translate(-116.37 328.36) rotate(-40.9)"/>
    <path class="cls-9" d="M400.71,327.71c7.5-.42,18.98-9.49,17.08-18.03,0,0,18.98-2.85,17.08-12.34-1.9-9.49-18.03,0-18.03,0l-1.9-1.9s17.08-14.23,11.39-20.88c-6.99-8.15-20.88,12.34-20.88,12.34l-3.8-1.9s9.49-15.18,0-18.03c-11.24-3.37-14.23,19.02-14.23,19.02-13.27,10.1-13.27,21.22-5.41,32.94,4.18,6.22,11.21,9.19,18.7,8.77Z"/>
    <g id="Letter">
      <path class="cls-9" d="M393.25,274.08l12.64,34.19c1.18,3.18,4.68,4.84,7.88,3.72l57.43-19.98c3.22-1.12,4.94-4.62,3.86-7.85l-11.1-33.31c-1.08-3.24-4.57-5.01-7.82-3.95l-58.96,19.1c-3.37,1.09-5.15,4.76-3.92,8.08Z"/>
      <path class="cls-9" d="M396,271l38.4,11.24c1.55.45,3.22-.13,4.16-1.45l21.44-32.79"/>
      <line class="cls-9" x1="409" y1="310" x2="427" y2="281"/>
      <line class="cls-9" x1="474.91" y1="288.49" x2="443" y2="276"/>
    </g>
    <path class="cls-9" d="M389.32,295.45c20.88-19.93,27.68,2.55,10.75,10.44,4.88,8.04-.31,16.13-8.85,14.95"/>
  </g>
  <g id="R_sleeve" data-name="R sleeve">
    <path class="cls-9" d="M302,343.9c9,14.1,22.67,18.8,41,14.1,6.14-13.37,4.29-26.6-6.82-39.69-17.73-2.06-29.16,6.4-34.18,25.59Z"/>
  </g>
  <g id="Top_shirt" data-name="Top shirt">
    <path class="cls-14" d="M263.24,297.61c28.92,6.72,44.87,19.38,48.76,37.55-33.43,14.6-66.71,14.73-99.84,0,13.57-16.64,28.33-31.86,51.09-37.55Z"/>
  </g>
  <g id="Low_shirt" data-name="Low shirt">
    <path class="cls-9" d="M319.3,334.56c9.66,15.06,12.38,34.15,12,55.02-37.3,21.41-91.3,12.41-126,1.8,3.35-22.68,12.57-41.89,26.39-58.39"/>
  </g>
  <g id="L_arm" data-name="L arm">
    <path class="cls-4" d="M199.28,349.68c-17.62,24.98-16.38,44.75,3.72,59.32l16-19c-6.53-6.14-5.21-15.88-2-23"/>
  </g>
  <g id="L_hand" data-name="L hand">
    <ellipse class="cls-9" cx="209.58" cy="397.42" rx="21.81" ry="13" transform="translate(-219.64 264.6) rotate(-45)"/>
    <path class="cls-9" d="M229,416c5.85,7.65,24,11,24,3s-19-7-21-19c20.96.44,16.51-19.55-10-12-24.08.61-30,37,3,38,5.7,4.34,12.04,3.99,19-1"/>
  </g>
  <g id="L_sleev" data-name="L sleev">
    <path class="cls-9" d="M241,325c-26.22,4.03-45.01,15.27-54,36,18.06-4.36,30,6,34,15"/>
  </g>
  <g id="Collar">
    <path class="cls-9" d="M255.68,338.09c15.32,17.91,41.32,13.91,46.32-4.09"/>
    <path class="cls-2" d="M265,337c11.17,6.87,21,8,31-4"/>
  </g>
  <g id="Head">
    <path class="cls-3" d="M383,244c0,54-53.87,92-116,92s-109-37.88-109-92,50.37-98,112.5-98,112.5,43.88,112.5,98Z"/>
  </g>
  <g id="Layer_12" data-name="Layer 12">
    <path class="cls-4" d="M279,158c22.18-.9,29.03-15.01,27-34-13.72,2.25-26,8-33,21,3-14-6.33-27.33-19-33-9.15,7.86-13,22-7,35-13-13-22.42-13.85-37-13,1.45,10.57,10,34,36,25"/>
  </g>
  <g id="L_eye" data-name="L eye">
    <ellipse class="cls-5" cx="259" cy="257.5" rx="19" ry="24.5"/>
    <ellipse class="cls-7" cx="252" cy="258" rx="11" ry="18"/>
    <ellipse class="cls-6" cx="251" cy="257" rx="3" ry="5"/>
  </g>
  <g id="R_eye" data-name="R eye">
    <ellipse class="cls-5" cx="334.5" cy="251.5" rx="17.5" ry="23.5"/>
    <ellipse class="cls-7" cx="329" cy="253.5" rx="11" ry="18.5"/>
    <ellipse class="cls-6" cx="324" cy="253" rx="3" ry="5"/>
  </g>
  <g id="Mouth_nose" data-name="Mouth/nose">
    <path class="cls-8" d="M278,288c4.29,7.56,12.37,12.18,21,12,13.09-.28,19.69-11.45,20-12"/>
    <path class="cls-8" d="M299,274c1.37-3.14,4.81-4.82,8-4,3.41.87,5.67,4.38,5,8"/>
  </g>
  <g id="R_eyebrow" data-name="R eyebrow">
    <path class="cls-8" d="M320,208c1.01-.75,4.74-3.35,10-3,6.64.45,10.42,5.25,11,6"/>
  </g>
  <g id="L_eyebrow" data-name="L eyebrow">
    <path class="cls-8" d="M240,219c1.07-1.5,3.91-5.06,9-7,6.64-2.54,12.47-.57,14,0"/>
  </g>
  <g id="L_cheek" data-name="L cheek">
    <ellipse class="cls-13" cx="234" cy="287.93" rx="15" ry="13.93"/>
  </g>
  <g id="R_cheek" data-name="R cheek">
    <ellipse class="cls-13" cx="357.29" cy="279.58" rx="11.7" ry="12.01" transform="translate(-95.82 302.15) rotate(-40.9)"/>
  </g>
  <g id="Layer_28" data-name="Layer 28">
    <path class="cls-10" d="M193,199c8.76-11.99,19.22-20.58,32-25"/>
  </g>
</svg>