<?xml version="1.0" encoding="UTF-8"?>
<svg id="Layer_1" data-name="Layer 1" xmlns="http://www.w3.org/2000/svg" viewBox="0 0 2592 1728">
  <defs>
    <style>
      .cls-1 {
        fill: #f05423;
      }

      .cls-2 {
        fill: #4068b2;
      }

      .cls-3 {
        fill: #fff;
      }

      .cls-4 {
        fill: #ffcc05;
      }

      .cls-5 {
        fill: #f067a6;
      }
    </style>
  </defs>
  <path class="cls-4" d="M1931.61,418.72c0-55.84-81.83-89.78-144.63-59.98l-220.49,104.64c-77.65-30.53-163.82-47.52-254.54-47.52-85.95,0-167.8,15.26-242.2,42.82l-222.14-99.94c-66.24-29.8-152.57,4.14-152.57,59.98v486.37c-1.79,16.71-2.74,33.63-2.74,50.74,0,298.22,277.43,368.95,619.66,368.95s619.66-70.73,619.66-368.95c0-8.85-.26-17.64-.75-26.39l.75.44v-511.17Z"/>
  <ellipse class="cls-5" cx="1295.97" cy="1155.6" rx="63.43" ry="48.51"/>
  <g>
    <circle class="cls-3" cx="990.74" cy="990.6" r="175.34"/>
    <circle class="cls-2" cx="1029.05" cy="990.6" r="107.73"/>
  </g>
  <g>
    <circle class="cls-3" cx="1601.2" cy="1000.09" r="175.34"/>
    <circle class="cls-1" cx="1555.91" cy="1000.09" r="107.73"/>
  </g>
</svg>